<svg width="140" height="123" viewBox="0 0 140 123" fill="none" xmlns="http://www.w3.org/2000/svg">
<g opacity="0.3" filter="url(#filter0_d)">
<mask id="mask0" mask-type="alpha" maskUnits="userSpaceOnUse" x="4" y="0" width="11" height="11">
<path d="M9.22838 10.4252C12.1159 10.4252 14.4568 8.09145 14.4568 5.21269C14.4568 2.33393 12.1159 0.000244141 9.22838 0.000244141C6.34082 0.000244141 4 2.33393 4 5.21269C4 8.09145 6.34082 10.4252 9.22838 10.4252Z" fill="url(#paint0_linear)"/>
</mask>
<g mask="url(#mask0)">
<path d="M9.22838 10.4252C12.1159 10.4252 14.4568 8.09145 14.4568 5.21269C14.4568 2.33393 12.1159 0.000244141 9.22838 0.000244141C6.34082 0.000244141 4 2.33393 4 5.21269C4 8.09145 6.34082 10.4252 9.22838 10.4252Z" fill="url(#paint1_linear)"/>
</g>
<mask id="mask1" mask-type="alpha" maskUnits="userSpaceOnUse" x="34" y="0" width="11" height="11">
<path d="M39.5095 10.4252C42.397 10.4252 44.7378 8.09145 44.7378 5.21269C44.7378 2.33393 42.397 0.000244141 39.5095 0.000244141C36.6219 0.000244141 34.2811 2.33393 34.2811 5.21269C34.2811 8.09145 36.6219 10.4252 39.5095 10.4252Z" fill="url(#paint2_linear)"/>
</mask>
<g mask="url(#mask1)">
<path d="M39.5095 10.4252C42.397 10.4252 44.7378 8.09145 44.7378 5.21269C44.7378 2.33393 42.397 0.000244141 39.5095 0.000244141C36.6219 0.000244141 34.2811 2.33393 34.2811 5.21269C34.2811 8.09145 36.6219 10.4252 39.5095 10.4252Z" fill="url(#paint3_linear)"/>
</g>
<mask id="mask2" mask-type="alpha" maskUnits="userSpaceOnUse" x="64" y="0" width="12" height="11">
<path d="M69.7905 10.4252C72.6781 10.4252 75.0189 8.09145 75.0189 5.21269C75.0189 2.33393 72.6781 0.000244141 69.7905 0.000244141C66.9029 0.000244141 64.5621 2.33393 64.5621 5.21269C64.5621 8.09145 66.9029 10.4252 69.7905 10.4252Z" fill="url(#paint4_linear)"/>
</mask>
<g mask="url(#mask2)">
<path d="M69.7905 10.4252C72.6781 10.4252 75.0189 8.09145 75.0189 5.21269C75.0189 2.33393 72.6781 0.000244141 69.7905 0.000244141C66.9029 0.000244141 64.5621 2.33393 64.5621 5.21269C64.5621 8.09145 66.9029 10.4252 69.7905 10.4252Z" fill="url(#paint5_linear)"/>
</g>
<mask id="mask3" mask-type="alpha" maskUnits="userSpaceOnUse" x="94" y="0" width="12" height="11">
<path d="M100.072 10.4252C102.959 10.4252 105.3 8.09145 105.3 5.21269C105.3 2.33393 102.959 0.000244141 100.072 0.000244141C97.184 0.000244141 94.8432 2.33393 94.8432 5.21269C94.8432 8.09145 97.184 10.4252 100.072 10.4252Z" fill="url(#paint6_linear)"/>
</mask>
<g mask="url(#mask3)">
<path d="M100.072 10.4252C102.959 10.4252 105.3 8.09145 105.3 5.21269C105.3 2.33393 102.959 0.000244141 100.072 0.000244141C97.184 0.000244141 94.8432 2.33393 94.8432 5.21269C94.8432 8.09145 97.184 10.4252 100.072 10.4252Z" fill="url(#paint7_linear)"/>
</g>
<mask id="mask4" mask-type="alpha" maskUnits="userSpaceOnUse" x="125" y="0" width="11" height="11">
<path d="M130.353 10.4252C133.24 10.4252 135.581 8.09145 135.581 5.21269C135.581 2.33393 133.24 0.000244141 130.353 0.000244141C127.465 0.000244141 125.124 2.33393 125.124 5.21269C125.124 8.09145 127.465 10.4252 130.353 10.4252Z" fill="url(#paint8_linear)"/>
</mask>
<g mask="url(#mask4)">
<path d="M130.353 10.4252C133.24 10.4252 135.581 8.09145 135.581 5.21269C135.581 2.33393 133.24 0.000244141 130.353 0.000244141C127.465 0.000244141 125.124 2.33393 125.124 5.21269C125.124 8.09145 127.465 10.4252 130.353 10.4252Z" fill="url(#paint9_linear)"/>
</g>
<mask id="mask5" mask-type="alpha" maskUnits="userSpaceOnUse" x="4" y="26" width="11" height="11">
<path d="M9.22838 36.596C12.1159 36.596 14.4568 34.2623 14.4568 31.3836C14.4568 28.5048 12.1159 26.1711 9.22838 26.1711C6.34082 26.1711 4 28.5048 4 31.3836C4 34.2623 6.34082 36.596 9.22838 36.596Z" fill="url(#paint10_linear)"/>
</mask>
<g mask="url(#mask5)">
<path d="M9.22838 36.596C12.1159 36.596 14.4568 34.2623 14.4568 31.3836C14.4568 28.5048 12.1159 26.1711 9.22838 26.1711C6.34082 26.1711 4 28.5048 4 31.3836C4 34.2623 6.34082 36.596 9.22838 36.596Z" fill="url(#paint11_linear)"/>
</g>
<mask id="mask6" mask-type="alpha" maskUnits="userSpaceOnUse" x="34" y="26" width="11" height="11">
<path d="M39.5095 36.596C42.397 36.596 44.7378 34.2623 44.7378 31.3836C44.7378 28.5048 42.397 26.1711 39.5095 26.1711C36.6219 26.1711 34.2811 28.5048 34.2811 31.3836C34.2811 34.2623 36.6219 36.596 39.5095 36.596Z" fill="url(#paint12_linear)"/>
</mask>
<g mask="url(#mask6)">
<path d="M39.5095 36.596C42.397 36.596 44.7378 34.2623 44.7378 31.3836C44.7378 28.5048 42.397 26.1711 39.5095 26.1711C36.6219 26.1711 34.2811 28.5048 34.2811 31.3836C34.2811 34.2623 36.6219 36.596 39.5095 36.596Z" fill="url(#paint13_linear)"/>
</g>
<mask id="mask7" mask-type="alpha" maskUnits="userSpaceOnUse" x="64" y="26" width="12" height="11">
<path d="M69.7905 36.596C72.6781 36.596 75.0189 34.2623 75.0189 31.3836C75.0189 28.5048 72.6781 26.1711 69.7905 26.1711C66.9029 26.1711 64.5621 28.5048 64.5621 31.3836C64.5621 34.2623 66.9029 36.596 69.7905 36.596Z" fill="url(#paint14_linear)"/>
</mask>
<g mask="url(#mask7)">
<path d="M69.7905 36.596C72.6781 36.596 75.0189 34.2623 75.0189 31.3836C75.0189 28.5048 72.6781 26.1711 69.7905 26.1711C66.9029 26.1711 64.5621 28.5048 64.5621 31.3836C64.5621 34.2623 66.9029 36.596 69.7905 36.596Z" fill="url(#paint15_linear)"/>
</g>
<mask id="mask8" mask-type="alpha" maskUnits="userSpaceOnUse" x="94" y="26" width="12" height="11">
<path d="M100.072 36.596C102.959 36.596 105.3 34.2623 105.3 31.3836C105.3 28.5048 102.959 26.1711 100.072 26.1711C97.184 26.1711 94.8432 28.5048 94.8432 31.3836C94.8432 34.2623 97.184 36.596 100.072 36.596Z" fill="url(#paint16_linear)"/>
</mask>
<g mask="url(#mask8)">
<path d="M100.072 36.596C102.959 36.596 105.3 34.2623 105.3 31.3836C105.3 28.5048 102.959 26.1711 100.072 26.1711C97.184 26.1711 94.8432 28.5048 94.8432 31.3836C94.8432 34.2623 97.184 36.596 100.072 36.596Z" fill="url(#paint17_linear)"/>
</g>
<mask id="mask9" mask-type="alpha" maskUnits="userSpaceOnUse" x="125" y="26" width="11" height="11">
<path d="M130.353 36.596C133.24 36.596 135.581 34.2623 135.581 31.3836C135.581 28.5048 133.24 26.1711 130.353 26.1711C127.465 26.1711 125.124 28.5048 125.124 31.3836C125.124 34.2623 127.465 36.596 130.353 36.596Z" fill="url(#paint18_linear)"/>
</mask>
<g mask="url(#mask9)">
<path d="M130.353 36.596C133.24 36.596 135.581 34.2623 135.581 31.3836C135.581 28.5048 133.24 26.1711 130.353 26.1711C127.465 26.1711 125.124 28.5048 125.124 31.3836C125.124 34.2623 127.465 36.596 130.353 36.596Z" fill="url(#paint19_linear)"/>
</g>
<mask id="mask10" mask-type="alpha" maskUnits="userSpaceOnUse" x="4" y="52" width="11" height="11">
<path d="M9.22838 62.7126C12.1159 62.7126 14.4568 60.3789 14.4568 57.5001C14.4568 54.6213 12.1159 52.2876 9.22838 52.2876C6.34082 52.2876 4 54.6213 4 57.5001C4 60.3789 6.34082 62.7126 9.22838 62.7126Z" fill="url(#paint20_linear)"/>
</mask>
<g mask="url(#mask10)">
<path d="M9.22838 62.7126C12.1159 62.7126 14.4568 60.3789 14.4568 57.5001C14.4568 54.6213 12.1159 52.2876 9.22838 52.2876C6.34082 52.2876 4 54.6213 4 57.5001C4 60.3789 6.34082 62.7126 9.22838 62.7126Z" fill="url(#paint21_linear)"/>
</g>
<mask id="mask11" mask-type="alpha" maskUnits="userSpaceOnUse" x="34" y="52" width="11" height="11">
<path d="M39.5095 62.7126C42.397 62.7126 44.7378 60.3789 44.7378 57.5001C44.7378 54.6213 42.397 52.2876 39.5095 52.2876C36.6219 52.2876 34.2811 54.6213 34.2811 57.5001C34.2811 60.3789 36.6219 62.7126 39.5095 62.7126Z" fill="url(#paint22_linear)"/>
</mask>
<g mask="url(#mask11)">
<path d="M39.5095 62.7126C42.397 62.7126 44.7378 60.3789 44.7378 57.5001C44.7378 54.6213 42.397 52.2876 39.5095 52.2876C36.6219 52.2876 34.2811 54.6213 34.2811 57.5001C34.2811 60.3789 36.6219 62.7126 39.5095 62.7126Z" fill="url(#paint23_linear)"/>
</g>
<mask id="mask12" mask-type="alpha" maskUnits="userSpaceOnUse" x="64" y="52" width="12" height="11">
<path d="M69.7905 62.7126C72.6781 62.7126 75.0189 60.3789 75.0189 57.5001C75.0189 54.6213 72.6781 52.2876 69.7905 52.2876C66.9029 52.2876 64.5621 54.6213 64.5621 57.5001C64.5621 60.3789 66.9029 62.7126 69.7905 62.7126Z" fill="url(#paint24_linear)"/>
</mask>
<g mask="url(#mask12)">
<path d="M69.7905 62.7126C72.6781 62.7126 75.0189 60.3789 75.0189 57.5001C75.0189 54.6213 72.6781 52.2876 69.7905 52.2876C66.9029 52.2876 64.5621 54.6213 64.5621 57.5001C64.5621 60.3789 66.9029 62.7126 69.7905 62.7126Z" fill="url(#paint25_linear)"/>
</g>
<mask id="mask13" mask-type="alpha" maskUnits="userSpaceOnUse" x="94" y="52" width="12" height="11">
<path d="M100.072 62.7126C102.959 62.7126 105.3 60.3789 105.3 57.5001C105.3 54.6213 102.959 52.2876 100.072 52.2876C97.184 52.2876 94.8432 54.6213 94.8432 57.5001C94.8432 60.3789 97.184 62.7126 100.072 62.7126Z" fill="url(#paint26_linear)"/>
</mask>
<g mask="url(#mask13)">
<path d="M100.072 62.7126C102.959 62.7126 105.3 60.3789 105.3 57.5001C105.3 54.6213 102.959 52.2876 100.072 52.2876C97.184 52.2876 94.8432 54.6213 94.8432 57.5001C94.8432 60.3789 97.184 62.7126 100.072 62.7126Z" fill="url(#paint27_linear)"/>
</g>
<mask id="mask14" mask-type="alpha" maskUnits="userSpaceOnUse" x="125" y="52" width="11" height="11">
<path d="M130.353 62.7126C133.24 62.7126 135.581 60.3789 135.581 57.5001C135.581 54.6213 133.24 52.2876 130.353 52.2876C127.465 52.2876 125.124 54.6213 125.124 57.5001C125.124 60.3789 127.465 62.7126 130.353 62.7126Z" fill="url(#paint28_linear)"/>
</mask>
<g mask="url(#mask14)">
<path d="M130.353 62.7126C133.24 62.7126 135.581 60.3789 135.581 57.5001C135.581 54.6213 133.24 52.2876 130.353 52.2876C127.465 52.2876 125.124 54.6213 125.124 57.5001C125.124 60.3789 127.465 62.7126 130.353 62.7126Z" fill="url(#paint29_linear)"/>
</g>
<mask id="mask15" mask-type="alpha" maskUnits="userSpaceOnUse" x="4" y="78" width="11" height="11">
<path d="M9.22838 88.8835C12.1159 88.8835 14.4568 86.5497 14.4568 83.6709C14.4568 80.7922 12.1159 78.4585 9.22838 78.4585C6.34082 78.4585 4 80.7922 4 83.6709C4 86.5497 6.34082 88.8835 9.22838 88.8835Z" fill="url(#paint30_linear)"/>
</mask>
<g mask="url(#mask15)">
<path d="M9.22838 88.8835C12.1159 88.8835 14.4568 86.5497 14.4568 83.6709C14.4568 80.7922 12.1159 78.4585 9.22838 78.4585C6.34082 78.4585 4 80.7922 4 83.6709C4 86.5497 6.34082 88.8835 9.22838 88.8835Z" fill="url(#paint31_linear)"/>
</g>
<mask id="mask16" mask-type="alpha" maskUnits="userSpaceOnUse" x="34" y="78" width="11" height="11">
<path d="M39.5095 88.8835C42.397 88.8835 44.7378 86.5497 44.7378 83.6709C44.7378 80.7922 42.397 78.4585 39.5095 78.4585C36.6219 78.4585 34.2811 80.7922 34.2811 83.6709C34.2811 86.5497 36.6219 88.8835 39.5095 88.8835Z" fill="url(#paint32_linear)"/>
</mask>
<g mask="url(#mask16)">
<path d="M39.5095 88.8835C42.397 88.8835 44.7378 86.5497 44.7378 83.6709C44.7378 80.7922 42.397 78.4585 39.5095 78.4585C36.6219 78.4585 34.2811 80.7922 34.2811 83.6709C34.2811 86.5497 36.6219 88.8835 39.5095 88.8835Z" fill="url(#paint33_linear)"/>
</g>
<mask id="mask17" mask-type="alpha" maskUnits="userSpaceOnUse" x="64" y="78" width="12" height="11">
<path d="M69.7905 88.8835C72.6781 88.8835 75.0189 86.5497 75.0189 83.6709C75.0189 80.7922 72.6781 78.4585 69.7905 78.4585C66.9029 78.4585 64.5621 80.7922 64.5621 83.6709C64.5621 86.5497 66.9029 88.8835 69.7905 88.8835Z" fill="url(#paint34_linear)"/>
</mask>
<g mask="url(#mask17)">
<path d="M69.7905 88.8835C72.6781 88.8835 75.0189 86.5497 75.0189 83.6709C75.0189 80.7922 72.6781 78.4585 69.7905 78.4585C66.9029 78.4585 64.5621 80.7922 64.5621 83.6709C64.5621 86.5497 66.9029 88.8835 69.7905 88.8835Z" fill="url(#paint35_linear)"/>
</g>
<mask id="mask18" mask-type="alpha" maskUnits="userSpaceOnUse" x="94" y="78" width="12" height="11">
<path d="M100.072 88.8835C102.959 88.8835 105.3 86.5497 105.3 83.6709C105.3 80.7922 102.959 78.4585 100.072 78.4585C97.184 78.4585 94.8432 80.7922 94.8432 83.6709C94.8432 86.5497 97.184 88.8835 100.072 88.8835Z" fill="url(#paint36_linear)"/>
</mask>
<g mask="url(#mask18)">
<path d="M100.072 88.8835C102.959 88.8835 105.3 86.5497 105.3 83.6709C105.3 80.7922 102.959 78.4585 100.072 78.4585C97.184 78.4585 94.8432 80.7922 94.8432 83.6709C94.8432 86.5497 97.184 88.8835 100.072 88.8835Z" fill="url(#paint37_linear)"/>
</g>
<mask id="mask19" mask-type="alpha" maskUnits="userSpaceOnUse" x="125" y="78" width="11" height="11">
<path d="M130.353 88.8835C133.24 88.8835 135.581 86.5497 135.581 83.6709C135.581 80.7922 133.24 78.4585 130.353 78.4585C127.465 78.4585 125.124 80.7922 125.124 83.6709C125.124 86.5497 127.465 88.8835 130.353 88.8835Z" fill="url(#paint38_linear)"/>
</mask>
<g mask="url(#mask19)">
<path d="M130.353 88.8835C133.24 88.8835 135.581 86.5497 135.581 83.6709C135.581 80.7922 133.24 78.4585 130.353 78.4585C127.465 78.4585 125.124 80.7922 125.124 83.6709C125.124 86.5497 127.465 88.8835 130.353 88.8835Z" fill="url(#paint39_linear)"/>
</g>
<mask id="mask20" mask-type="alpha" maskUnits="userSpaceOnUse" x="4" y="104" width="11" height="12">
<path d="M9.22838 115C12.1159 115 14.4568 112.666 14.4568 109.788C14.4568 106.909 12.1159 104.575 9.22838 104.575C6.34082 104.575 4 106.909 4 109.788C4 112.666 6.34082 115 9.22838 115Z" fill="url(#paint40_linear)"/>
</mask>
<g mask="url(#mask20)">
<path d="M9.22838 115C12.1159 115 14.4568 112.666 14.4568 109.788C14.4568 106.909 12.1159 104.575 9.22838 104.575C6.34082 104.575 4 106.909 4 109.788C4 112.666 6.34082 115 9.22838 115Z" fill="url(#paint41_linear)"/>
</g>
<mask id="mask21" mask-type="alpha" maskUnits="userSpaceOnUse" x="34" y="104" width="11" height="12">
<path d="M39.5095 115C42.397 115 44.7378 112.666 44.7378 109.788C44.7378 106.909 42.397 104.575 39.5095 104.575C36.6219 104.575 34.2811 106.909 34.2811 109.788C34.2811 112.666 36.6219 115 39.5095 115Z" fill="url(#paint42_linear)"/>
</mask>
<g mask="url(#mask21)">
<path d="M39.5095 115C42.397 115 44.7378 112.666 44.7378 109.788C44.7378 106.909 42.397 104.575 39.5095 104.575C36.6219 104.575 34.2811 106.909 34.2811 109.788C34.2811 112.666 36.6219 115 39.5095 115Z" fill="url(#paint43_linear)"/>
</g>
<mask id="mask22" mask-type="alpha" maskUnits="userSpaceOnUse" x="64" y="104" width="12" height="12">
<path d="M69.7905 115C72.6781 115 75.0189 112.666 75.0189 109.788C75.0189 106.909 72.6781 104.575 69.7905 104.575C66.9029 104.575 64.5621 106.909 64.5621 109.788C64.5621 112.666 66.9029 115 69.7905 115Z" fill="url(#paint44_linear)"/>
</mask>
<g mask="url(#mask22)">
<path d="M69.7905 115C72.6781 115 75.0189 112.666 75.0189 109.788C75.0189 106.909 72.6781 104.575 69.7905 104.575C66.9029 104.575 64.5621 106.909 64.5621 109.788C64.5621 112.666 66.9029 115 69.7905 115Z" fill="url(#paint45_linear)"/>
</g>
<mask id="mask23" mask-type="alpha" maskUnits="userSpaceOnUse" x="94" y="104" width="12" height="12">
<path d="M100.072 115C102.959 115 105.3 112.666 105.3 109.788C105.3 106.909 102.959 104.575 100.072 104.575C97.184 104.575 94.8432 106.909 94.8432 109.788C94.8432 112.666 97.184 115 100.072 115Z" fill="url(#paint46_linear)"/>
</mask>
<g mask="url(#mask23)">
<path d="M100.072 115C102.959 115 105.3 112.666 105.3 109.788C105.3 106.909 102.959 104.575 100.072 104.575C97.184 104.575 94.8432 106.909 94.8432 109.788C94.8432 112.666 97.184 115 100.072 115Z" fill="url(#paint47_linear)"/>
</g>
<mask id="mask24" mask-type="alpha" maskUnits="userSpaceOnUse" x="125" y="104" width="11" height="12">
<path d="M130.353 115C133.24 115 135.581 112.666 135.581 109.788C135.581 106.909 133.24 104.575 130.353 104.575C127.465 104.575 125.124 106.909 125.124 109.788C125.124 112.666 127.465 115 130.353 115Z" fill="url(#paint48_linear)"/>
</mask>
<g mask="url(#mask24)">
<path d="M130.353 115C133.24 115 135.581 112.666 135.581 109.788C135.581 106.909 133.24 104.575 130.353 104.575C127.465 104.575 125.124 106.909 125.124 109.788C125.124 112.666 127.465 115 130.353 115Z" fill="url(#paint49_linear)"/>
</g>
</g>
<defs>
<filter id="filter0_d" x="0" y="0.000244141" width="139.581" height="123" filterUnits="userSpaceOnUse" color-interpolation-filters="sRGB">
<feFlood flood-opacity="0" result="BackgroundImageFix"/>
<feColorMatrix in="SourceAlpha" type="matrix" values="0 0 0 0 0 0 0 0 0 0 0 0 0 0 0 0 0 0 127 0"/>
<feOffset dy="4"/>
<feGaussianBlur stdDeviation="2"/>
<feColorMatrix type="matrix" values="0 0 0 0 0 0 0 0 0 0 0 0 0 0 0 0 0 0 0.25 0"/>
<feBlend mode="normal" in2="BackgroundImageFix" result="effect1_dropShadow"/>
<feBlend mode="normal" in="SourceGraphic" in2="effect1_dropShadow" result="shape"/>
</filter>
<linearGradient id="paint0_linear" x1="58.996" y1="131.134" x2="-12.4057" y2="-50.6697" gradientUnits="userSpaceOnUse">
<stop/>
<stop offset="1" stop-color="white"/>
</linearGradient>
<linearGradient id="paint1_linear" x1="58.996" y1="131.134" x2="-12.4057" y2="-50.6697" gradientUnits="userSpaceOnUse">
<stop stop-color="#97C3F9"/>
<stop offset="1" stop-color="#93C1F9"/>
</linearGradient>
<linearGradient id="paint2_linear" x1="85.2005" y1="120.843" x2="13.7989" y2="-60.961" gradientUnits="userSpaceOnUse">
<stop/>
<stop offset="1" stop-color="white"/>
</linearGradient>
<linearGradient id="paint3_linear" x1="85.2005" y1="120.843" x2="13.7989" y2="-60.961" gradientUnits="userSpaceOnUse">
<stop stop-color="#97C3F9"/>
<stop offset="1" stop-color="#93C1F9"/>
</linearGradient>
<linearGradient id="paint4_linear" x1="111.405" y1="110.551" x2="40.0033" y2="-71.2523" gradientUnits="userSpaceOnUse">
<stop/>
<stop offset="1" stop-color="white"/>
</linearGradient>
<linearGradient id="paint5_linear" x1="111.405" y1="110.551" x2="40.0033" y2="-71.2523" gradientUnits="userSpaceOnUse">
<stop stop-color="#97C3F9"/>
<stop offset="1" stop-color="#93C1F9"/>
</linearGradient>
<linearGradient id="paint6_linear" x1="137.609" y1="100.26" x2="66.2075" y2="-81.5442" gradientUnits="userSpaceOnUse">
<stop/>
<stop offset="1" stop-color="white"/>
</linearGradient>
<linearGradient id="paint7_linear" x1="137.609" y1="100.26" x2="66.2075" y2="-81.5442" gradientUnits="userSpaceOnUse">
<stop stop-color="#97C3F9"/>
<stop offset="1" stop-color="#93C1F9"/>
</linearGradient>
<linearGradient id="paint8_linear" x1="163.813" y1="89.9682" x2="92.4119" y2="-91.8357" gradientUnits="userSpaceOnUse">
<stop/>
<stop offset="1" stop-color="white"/>
</linearGradient>
<linearGradient id="paint9_linear" x1="163.813" y1="89.9682" x2="92.4119" y2="-91.8357" gradientUnits="userSpaceOnUse">
<stop stop-color="#97C3F9"/>
<stop offset="1" stop-color="#93C1F9"/>
</linearGradient>
<linearGradient id="paint10_linear" x1="50.0538" y1="134.646" x2="-21.3466" y2="-47.1569" gradientUnits="userSpaceOnUse">
<stop/>
<stop offset="1" stop-color="white"/>
</linearGradient>
<linearGradient id="paint11_linear" x1="50.0538" y1="134.646" x2="-21.3466" y2="-47.1569" gradientUnits="userSpaceOnUse">
<stop stop-color="#97C3F9"/>
<stop offset="1" stop-color="#93C1F9"/>
</linearGradient>
<linearGradient id="paint12_linear" x1="76.2581" y1="124.354" x2="4.85772" y2="-57.4488" gradientUnits="userSpaceOnUse">
<stop/>
<stop offset="1" stop-color="white"/>
</linearGradient>
<linearGradient id="paint13_linear" x1="76.2581" y1="124.354" x2="4.85772" y2="-57.4488" gradientUnits="userSpaceOnUse">
<stop stop-color="#97C3F9"/>
<stop offset="1" stop-color="#93C1F9"/>
</linearGradient>
<linearGradient id="paint14_linear" x1="102.462" y1="114.062" x2="31.062" y2="-67.7401" gradientUnits="userSpaceOnUse">
<stop/>
<stop offset="1" stop-color="white"/>
</linearGradient>
<linearGradient id="paint15_linear" x1="102.462" y1="114.062" x2="31.062" y2="-67.7401" gradientUnits="userSpaceOnUse">
<stop stop-color="#97C3F9"/>
<stop offset="1" stop-color="#93C1F9"/>
</linearGradient>
<linearGradient id="paint16_linear" x1="128.667" y1="103.771" x2="57.2663" y2="-78.0316" gradientUnits="userSpaceOnUse">
<stop/>
<stop offset="1" stop-color="white"/>
</linearGradient>
<linearGradient id="paint17_linear" x1="128.667" y1="103.771" x2="57.2663" y2="-78.0316" gradientUnits="userSpaceOnUse">
<stop stop-color="#97C3F9"/>
<stop offset="1" stop-color="#93C1F9"/>
</linearGradient>
<linearGradient id="paint18_linear" x1="154.871" y1="93.4795" x2="83.4707" y2="-88.3229" gradientUnits="userSpaceOnUse">
<stop/>
<stop offset="1" stop-color="white"/>
</linearGradient>
<linearGradient id="paint19_linear" x1="154.871" y1="93.4795" x2="83.4707" y2="-88.3229" gradientUnits="userSpaceOnUse">
<stop stop-color="#97C3F9"/>
<stop offset="1" stop-color="#93C1F9"/>
</linearGradient>
<linearGradient id="paint20_linear" x1="41.1113" y1="138.158" x2="-30.2903" y2="-43.6457" gradientUnits="userSpaceOnUse">
<stop/>
<stop offset="1" stop-color="white"/>
</linearGradient>
<linearGradient id="paint21_linear" x1="41.1113" y1="138.158" x2="-30.2903" y2="-43.6457" gradientUnits="userSpaceOnUse">
<stop stop-color="#97C3F9"/>
<stop offset="1" stop-color="#93C1F9"/>
</linearGradient>
<linearGradient id="paint22_linear" x1="67.3157" y1="127.867" x2="-4.0859" y2="-53.9373" gradientUnits="userSpaceOnUse">
<stop/>
<stop offset="1" stop-color="white"/>
</linearGradient>
<linearGradient id="paint23_linear" x1="67.3157" y1="127.867" x2="-4.0859" y2="-53.9373" gradientUnits="userSpaceOnUse">
<stop stop-color="#97C3F9"/>
<stop offset="1" stop-color="#93C1F9"/>
</linearGradient>
<linearGradient id="paint24_linear" x1="93.52" y1="117.575" x2="22.1185" y2="-64.2287" gradientUnits="userSpaceOnUse">
<stop/>
<stop offset="1" stop-color="white"/>
</linearGradient>
<linearGradient id="paint25_linear" x1="93.52" y1="117.575" x2="22.1185" y2="-64.2287" gradientUnits="userSpaceOnUse">
<stop stop-color="#97C3F9"/>
<stop offset="1" stop-color="#93C1F9"/>
</linearGradient>
<linearGradient id="paint26_linear" x1="119.724" y1="107.283" x2="48.3227" y2="-74.5204" gradientUnits="userSpaceOnUse">
<stop/>
<stop offset="1" stop-color="white"/>
</linearGradient>
<linearGradient id="paint27_linear" x1="119.724" y1="107.283" x2="48.3227" y2="-74.5204" gradientUnits="userSpaceOnUse">
<stop stop-color="#97C3F9"/>
<stop offset="1" stop-color="#93C1F9"/>
</linearGradient>
<linearGradient id="paint28_linear" x1="145.929" y1="96.992" x2="74.5271" y2="-84.8119" gradientUnits="userSpaceOnUse">
<stop/>
<stop offset="1" stop-color="white"/>
</linearGradient>
<linearGradient id="paint29_linear" x1="145.929" y1="96.992" x2="74.5271" y2="-84.8119" gradientUnits="userSpaceOnUse">
<stop stop-color="#97C3F9"/>
<stop offset="1" stop-color="#93C1F9"/>
</linearGradient>
<linearGradient id="paint30_linear" x1="32.169" y1="141.67" x2="-39.2327" y2="-40.1338" gradientUnits="userSpaceOnUse">
<stop/>
<stop offset="1" stop-color="white"/>
</linearGradient>
<linearGradient id="paint31_linear" x1="32.169" y1="141.67" x2="-39.2327" y2="-40.1338" gradientUnits="userSpaceOnUse">
<stop stop-color="#97C3F9"/>
<stop offset="1" stop-color="#93C1F9"/>
</linearGradient>
<linearGradient id="paint32_linear" x1="58.3734" y1="131.379" x2="-13.0283" y2="-50.4253" gradientUnits="userSpaceOnUse">
<stop/>
<stop offset="1" stop-color="white"/>
</linearGradient>
<linearGradient id="paint33_linear" x1="58.3734" y1="131.379" x2="-13.0283" y2="-50.4253" gradientUnits="userSpaceOnUse">
<stop stop-color="#97C3F9"/>
<stop offset="1" stop-color="#93C1F9"/>
</linearGradient>
<linearGradient id="paint34_linear" x1="84.5776" y1="121.087" x2="13.1761" y2="-60.7167" gradientUnits="userSpaceOnUse">
<stop/>
<stop offset="1" stop-color="white"/>
</linearGradient>
<linearGradient id="paint35_linear" x1="84.5776" y1="121.087" x2="13.1761" y2="-60.7167" gradientUnits="userSpaceOnUse">
<stop stop-color="#97C3F9"/>
<stop offset="1" stop-color="#93C1F9"/>
</linearGradient>
<linearGradient id="paint36_linear" x1="110.782" y1="110.796" x2="39.3804" y2="-71.0083" gradientUnits="userSpaceOnUse">
<stop/>
<stop offset="1" stop-color="white"/>
</linearGradient>
<linearGradient id="paint37_linear" x1="110.782" y1="110.796" x2="39.3804" y2="-71.0083" gradientUnits="userSpaceOnUse">
<stop stop-color="#97C3F9"/>
<stop offset="1" stop-color="#93C1F9"/>
</linearGradient>
<linearGradient id="paint38_linear" x1="136.986" y1="100.504" x2="65.5847" y2="-81.2999" gradientUnits="userSpaceOnUse">
<stop/>
<stop offset="1" stop-color="white"/>
</linearGradient>
<linearGradient id="paint39_linear" x1="136.986" y1="100.504" x2="65.5847" y2="-81.2999" gradientUnits="userSpaceOnUse">
<stop stop-color="#97C3F9"/>
<stop offset="1" stop-color="#93C1F9"/>
</linearGradient>
<linearGradient id="paint40_linear" x1="23.2266" y1="145.182" x2="-48.1751" y2="-36.6217" gradientUnits="userSpaceOnUse">
<stop/>
<stop offset="1" stop-color="white"/>
</linearGradient>
<linearGradient id="paint41_linear" x1="23.2266" y1="145.182" x2="-48.1751" y2="-36.6217" gradientUnits="userSpaceOnUse">
<stop stop-color="#97C3F9"/>
<stop offset="1" stop-color="#93C1F9"/>
</linearGradient>
<linearGradient id="paint42_linear" x1="49.431" y1="134.891" x2="-21.9706" y2="-46.9132" gradientUnits="userSpaceOnUse">
<stop/>
<stop offset="1" stop-color="white"/>
</linearGradient>
<linearGradient id="paint43_linear" x1="49.431" y1="134.891" x2="-21.9706" y2="-46.9132" gradientUnits="userSpaceOnUse">
<stop stop-color="#97C3F9"/>
<stop offset="1" stop-color="#93C1F9"/>
</linearGradient>
<linearGradient id="paint44_linear" x1="75.6353" y1="124.599" x2="4.23372" y2="-57.2045" gradientUnits="userSpaceOnUse">
<stop/>
<stop offset="1" stop-color="white"/>
</linearGradient>
<linearGradient id="paint45_linear" x1="75.6353" y1="124.599" x2="4.23372" y2="-57.2045" gradientUnits="userSpaceOnUse">
<stop stop-color="#97C3F9"/>
<stop offset="1" stop-color="#93C1F9"/>
</linearGradient>
<linearGradient id="paint46_linear" x1="101.84" y1="114.308" x2="30.438" y2="-67.4962" gradientUnits="userSpaceOnUse">
<stop/>
<stop offset="1" stop-color="white"/>
</linearGradient>
<linearGradient id="paint47_linear" x1="101.84" y1="114.308" x2="30.438" y2="-67.4962" gradientUnits="userSpaceOnUse">
<stop stop-color="#97C3F9"/>
<stop offset="1" stop-color="#93C1F9"/>
</linearGradient>
<linearGradient id="paint48_linear" x1="128.044" y1="104.016" x2="56.6424" y2="-77.7877" gradientUnits="userSpaceOnUse">
<stop/>
<stop offset="1" stop-color="white"/>
</linearGradient>
<linearGradient id="paint49_linear" x1="128.044" y1="104.016" x2="56.6424" y2="-77.7877" gradientUnits="userSpaceOnUse">
<stop stop-color="#97C3F9"/>
<stop offset="1" stop-color="#93C1F9"/>
</linearGradient>
</defs>
</svg>
